<svg width="102" height="44" viewBox="0 0 102 44" fill="none" xmlns="http://www.w3.org/2000/svg">
<path d="M21.3913 22.2752V20.3924H23.9711C24.5471 20.3924 25.0214 20.2763 25.3844 20.0391C25.7475 19.7923 26.0088 19.4728 26.1685 19.0808C26.3379 18.6887 26.4251 18.2531 26.4251 17.7739C26.4251 17.1447 26.2508 16.6994 25.8975 16.4332C25.5538 16.167 25.0989 16.0363 24.5326 16.0363H21.3913V14.1051H24.5519C25.8781 14.1051 26.9042 14.4197 27.6303 15.0489C28.3563 15.6636 28.7193 16.5591 28.7193 17.7304C28.7193 18.3257 28.6225 18.9017 28.4289 19.4534C28.2353 19.9955 27.9497 20.4796 27.5625 20.9055C27.1753 21.3314 26.6913 21.6654 26.1008 21.9122C25.5151 22.1591 24.8181 22.2801 24.0147 22.2801H21.3865L21.3913 22.2752ZM20.1426 25.5956V14.1051H22.4223V25.5956H20.1426Z" fill="white"/>
<path d="M34.145 25.7909C32.8092 25.7909 31.7976 25.5731 31.1151 25.1375C30.4423 24.7019 30.1035 23.9952 30.1035 23.0127C30.1035 22.3835 30.2584 21.8704 30.5682 21.4639C30.8876 21.0573 31.3329 20.762 31.8992 20.5684C32.4752 20.3651 33.1383 20.2635 33.8885 20.2635C34.3483 20.2635 34.75 20.3022 35.0889 20.3748C35.4325 20.4377 35.7423 20.5055 36.0182 20.5829V22.0205C35.8052 21.9479 35.5293 21.8801 35.2002 21.8269C34.871 21.7639 34.5468 21.7301 34.237 21.7301C33.54 21.7301 33.0221 21.8269 32.6833 22.0156C32.3542 22.2092 32.1848 22.5335 32.1848 22.9885C32.1848 23.4435 32.3493 23.7387 32.6833 23.9323C33.0173 24.1259 33.4916 24.2179 34.1111 24.2179C34.4838 24.2179 34.842 24.184 35.1857 24.1211C35.539 24.0485 35.8488 23.9372 36.115 23.7871L35.7955 24.4115C35.7519 24.2857 35.7132 24.155 35.6842 24.0291C35.6503 23.9033 35.6261 23.7678 35.6019 23.6322C35.5922 23.4919 35.5825 23.3418 35.568 23.1676V20.3264C35.568 19.7843 35.4809 19.3729 35.3115 19.097C35.1421 18.8211 34.8904 18.6372 34.5564 18.5549C34.2273 18.4581 33.8111 18.4097 33.3222 18.4097C32.8721 18.4097 32.4413 18.4581 32.0251 18.5549C31.6088 18.6421 31.27 18.7389 31.0135 18.8599H30.8537V17.0884C31.2409 16.948 31.6717 16.8512 32.1509 16.7834C32.6301 16.7108 33.1141 16.6721 33.5933 16.6721C34.1934 16.6721 34.7404 16.7254 35.2437 16.8318C35.7568 16.9383 36.2021 17.1223 36.5748 17.3885C36.9475 17.6547 37.2379 18.0322 37.4412 18.5211C37.6541 19.0002 37.7606 19.6246 37.7606 20.3893V23.245C37.7703 23.5742 37.7896 23.8984 37.809 24.2179C37.8284 24.5373 37.8622 24.7939 37.9058 24.9826L37.8574 25.1085C37.4944 25.2488 37.0975 25.3698 36.6716 25.4763C36.2553 25.5731 35.8294 25.6457 35.3889 25.699C34.9485 25.7522 34.5322 25.7764 34.1402 25.7764L34.145 25.7909Z" fill="white"/>
<path d="M41.1134 29.2967V29.1031L43.2285 24.0452L45.8422 16.877H48.1219V17.0706L43.3447 29.2967H41.1134ZM42.7009 26.2474L39.187 17.0706V16.877H41.578L43.9207 23.8371L42.7009 26.2474Z" fill="white"/>
<path d="M49.9122 25.5973V20.157C49.9122 19.944 49.9073 19.673 49.8976 19.3439C49.888 19.0051 49.8686 18.6759 49.8492 18.3565C49.8396 18.0274 49.8057 17.766 49.7524 17.5724L49.8008 17.4465C50.1203 17.3062 50.5027 17.1852 50.9383 17.0787C51.3787 16.9625 51.8337 16.8657 52.3032 16.7931C52.7824 16.7205 53.2422 16.6818 53.6826 16.6818C54.186 16.6818 54.67 16.7399 55.1444 16.856C55.6235 16.9625 56.0543 17.161 56.427 17.4465C56.8142 17.7321 57.1143 18.1338 57.3418 18.6421C57.5644 19.1406 57.6806 19.7843 57.6806 20.5733V25.6022H55.4348V20.6701C55.4348 20.0844 55.3476 19.6391 55.1782 19.3294C55.0185 19.0099 54.7862 18.7921 54.4909 18.6759C54.2005 18.5501 53.8666 18.4823 53.4793 18.4823C53.1599 18.4823 52.8308 18.5211 52.5016 18.5937C52.1822 18.6663 51.8966 18.7534 51.6498 18.8502L51.9886 18.2936C52.0418 18.4533 52.0854 18.6614 52.1193 18.9179C52.1531 19.1745 52.1677 19.4649 52.1677 19.794V25.6022H49.9218L49.9122 25.5973ZM60.8025 25.5973V20.6652C60.8025 20.0796 60.7202 19.6343 60.5605 19.3245C60.4104 19.0051 60.1829 18.7873 59.8732 18.6711C59.5731 18.5453 59.2101 18.4775 58.7841 18.4775C58.5179 18.4775 58.242 18.5114 57.9661 18.5743C57.6999 18.6275 57.4386 18.7001 57.182 18.7969L55.9623 17.3594C56.4415 17.1561 56.9497 16.9916 57.487 16.8657C58.0339 16.7399 58.5712 16.6721 59.1084 16.6721C59.6457 16.6721 60.1152 16.7254 60.5847 16.8318C61.0542 16.9383 61.4801 17.1368 61.8528 17.4223C62.2255 17.6982 62.5207 18.0903 62.7337 18.6033C62.9466 19.1019 63.0531 19.7601 63.0531 20.5684V25.5973H60.8073H60.8025Z" fill="white"/>
<path d="M70.4882 25.7542C69.6848 25.7542 68.9684 25.6622 68.3392 25.4832C67.71 25.3041 67.1727 25.033 66.7371 24.67C66.2967 24.2973 65.9627 23.823 65.7255 23.2519C65.5029 22.6759 65.3867 21.9983 65.3867 21.2093C65.3867 20.2752 65.561 19.4717 65.9143 18.7989C66.2676 18.1165 66.7662 17.5986 67.4051 17.2356C68.0585 16.8629 68.8184 16.679 69.6848 16.679C70.6576 16.679 71.4466 16.8822 72.0564 17.284C72.6663 17.676 73.1019 18.2326 73.3729 18.9441C73.6391 19.646 73.7505 20.4543 73.7117 21.369L73.6972 21.8966H66.8339V20.4301H71.5192V20.3333C71.5192 19.6847 71.3643 19.191 71.0545 18.8473C70.7544 18.5085 70.2946 18.3343 69.6751 18.3343C69.2879 18.3343 68.9442 18.4214 68.6345 18.5908C68.3344 18.7505 68.0924 19.0264 67.9133 19.4185C67.7439 19.8105 67.6567 20.3478 67.6567 21.0302V21.3642C67.6567 22.037 67.7874 22.5597 68.044 22.9421C68.3005 23.3148 68.6538 23.581 69.1039 23.7407C69.5541 23.9004 70.072 23.9779 70.6576 23.9779C71.1804 23.9779 71.6402 23.9295 72.0371 23.8327C72.434 23.7359 72.7437 23.6245 72.9664 23.4987H73.1261V25.3041C72.826 25.4299 72.4582 25.5364 72.0177 25.6235C71.5918 25.7106 71.0836 25.7494 70.4931 25.7494L70.4882 25.7542Z" fill="white"/>
<path d="M76.1461 25.5945V20.1542C76.1461 19.9412 76.1412 19.6702 76.1315 19.341C76.1218 19.0022 76.1025 18.6731 76.0831 18.3536C76.0734 18.0245 76.0396 17.7631 75.9863 17.5695L76.0347 17.4437C76.3542 17.3033 76.7365 17.1823 77.1722 17.0758C77.6223 16.9597 78.0821 16.8629 78.5516 16.7903C79.0308 16.7177 79.4857 16.679 79.9165 16.679C80.4634 16.679 80.9813 16.737 81.4702 16.8532C81.9736 16.9597 82.4237 17.1581 82.8158 17.4437C83.2126 17.7293 83.5224 18.131 83.7451 18.6392C83.9677 19.1377 84.0839 19.7815 84.0839 20.5704V25.5993H81.838V20.6672C81.838 20.0816 81.7509 19.6363 81.5815 19.3265C81.4121 19.0071 81.1653 18.7893 80.8458 18.6731C80.5264 18.5472 80.144 18.4795 79.7084 18.4795C79.3889 18.4795 79.0598 18.5182 78.7307 18.5908C78.4112 18.6634 78.1257 18.7505 77.8788 18.8473L78.2176 18.2907C78.2709 18.4504 78.3144 18.6586 78.3435 18.9151C78.3774 19.1716 78.3919 19.462 78.3919 19.7912V25.5993H76.1461V25.5945Z" fill="white"/>
<path d="M90.66 25.7175C89.9001 25.7175 89.2564 25.6062 88.7191 25.3836C88.1964 25.1609 87.7947 24.8173 87.5139 24.3623C87.2477 23.8928 87.1122 23.2926 87.1122 22.5569V14.624H89.358V22.3827C89.358 22.9248 89.4839 23.312 89.7452 23.5492C90.0018 23.7815 90.3987 23.9025 90.9311 23.9025C91.1344 23.9025 91.3328 23.8831 91.5264 23.8396C91.7297 23.796 91.904 23.7428 92.054 23.6799H92.1992V25.4659C92.0056 25.5385 91.7829 25.5965 91.5264 25.6401C91.2699 25.6933 90.9795 25.7175 90.66 25.7175ZM85.7183 18.6655V16.8795H91.7491V18.6655H85.7183Z" fill="white"/>
<path d="M93.72 23.3908H93.8507C94.2379 23.5505 94.6832 23.6908 95.1962 23.807C95.719 23.9232 96.2417 23.9813 96.7693 23.9813C96.9484 23.9813 97.1468 23.9764 97.3646 23.9667C97.5776 23.9474 97.776 23.9087 97.96 23.8554C98.1536 23.8022 98.3084 23.7054 98.4246 23.5698C98.5553 23.4295 98.6182 23.2456 98.6182 23.0132C98.6182 22.7131 98.4972 22.5099 98.2504 22.3889C98.0035 22.2727 97.626 22.171 97.1129 22.0839L96.3579 21.9581C95.5012 21.808 94.8429 21.5515 94.3831 21.1933C93.9233 20.8207 93.6958 20.2737 93.6958 19.5477C93.6958 19.025 93.8362 18.5506 94.1121 18.1295C94.4025 17.7036 94.8429 17.3696 95.4431 17.1228C96.0529 16.8663 96.8467 16.7404 97.8341 16.7404C98.2939 16.7404 98.715 16.7743 99.1022 16.8372C99.4991 16.8905 99.8718 16.9679 100.225 17.0744V18.9088H100.094C99.6879 18.7491 99.2958 18.6378 98.9231 18.5748C98.5505 18.5119 98.1632 18.478 97.7664 18.478C97.1662 18.478 96.6967 18.5506 96.353 18.7007C96.0191 18.841 95.8545 19.0879 95.8545 19.4509C95.8545 19.7268 95.9755 19.9252 96.2224 20.0414C96.4789 20.1576 96.8467 20.2592 97.3307 20.3463L98.0664 20.4722C98.5698 20.5448 99.0248 20.6803 99.4314 20.8691C99.8476 21.0627 100.182 21.3289 100.424 21.6677C100.67 21.9968 100.791 22.4227 100.791 22.9455C100.791 23.8699 100.443 24.5669 99.7508 25.0364C99.0683 25.4962 98.0277 25.7237 96.6386 25.7237C96.1255 25.7237 95.6125 25.6801 95.0994 25.5979C94.5864 25.5107 94.1266 25.4043 93.72 25.2784V23.3956V23.3908Z" fill="white"/>
<path d="M28.936 6.48505C28.936 5.28469 29.1635 4.23923 29.6233 3.35832C30.0928 2.4629 30.785 1.77076 31.6901 1.2819C32.6097 0.79305 33.7374 0.546204 35.0733 0.546204C35.6203 0.546204 36.1043 0.589765 36.535 0.672047C36.9755 0.759169 37.3385 0.870492 37.6241 1.00602V3.01467H37.4644C37.1885 2.85495 36.8497 2.73394 36.4528 2.64682C36.0559 2.55002 35.6348 2.50162 35.1846 2.50162C34.3279 2.50162 33.6116 2.6565 33.0356 2.96627C32.4597 3.27604 32.0192 3.72617 31.7191 4.32151C31.419 4.90716 31.269 5.6235 31.269 6.47537C31.269 7.32723 31.419 8.04841 31.7191 8.64375C32.0192 9.2294 32.4548 9.6747 33.0356 9.98446C33.6116 10.2942 34.3279 10.4491 35.1846 10.4491C35.6348 10.4491 36.0559 10.4056 36.4528 10.3233C36.8497 10.2265 37.1836 10.1006 37.4644 9.9409H37.6241V11.9496C37.3337 12.0899 36.9707 12.2012 36.535 12.2835C36.1091 12.3706 35.6203 12.4094 35.0733 12.4094C33.7374 12.4094 32.6097 12.1722 31.6901 11.693C30.7801 11.2139 30.0928 10.5314 29.6233 9.65049C29.1635 8.75507 28.936 7.69992 28.936 6.47537V6.48505Z" fill="white"/>
<path d="M43.6724 12.4232C42.3365 12.4232 41.3249 12.2054 40.6424 11.7698C39.9697 11.3342 39.6309 10.6275 39.6309 9.64496C39.6309 9.01574 39.7857 8.50269 40.0955 8.09612C40.415 7.68954 40.8603 7.3943 41.4265 7.20069C42.0025 6.9974 42.6656 6.89576 43.4158 6.89576C43.8757 6.89576 44.2774 6.93448 44.621 7.00708C44.9647 7.07001 45.2745 7.14261 45.5503 7.21521V8.65273C45.3374 8.58013 45.0615 8.51237 44.7324 8.45913C44.3984 8.3962 44.0789 8.36232 43.7692 8.36232C43.0722 8.36232 42.5543 8.45913 42.2155 8.64789C41.8815 8.8415 41.717 9.16579 41.717 9.62076C41.717 10.0757 41.8815 10.371 42.2155 10.5646C42.5446 10.7582 43.0238 10.8502 43.6433 10.8502C44.016 10.8502 44.3742 10.8163 44.7178 10.7533C45.0712 10.6807 45.3809 10.5694 45.6471 10.4194L45.3277 11.0438C45.2841 10.9179 45.2454 10.7872 45.2164 10.6614C45.1825 10.5355 45.1583 10.4 45.1341 10.2645C45.1244 10.1241 45.1147 9.97409 45.1002 9.79984V6.95868C45.1002 6.41659 45.0131 6.00518 44.8437 5.72929C44.6743 5.4534 44.4226 5.26948 44.0886 5.18719C43.7547 5.09039 43.3432 5.04199 42.8544 5.04199C42.4043 5.04199 41.9735 5.09039 41.5572 5.18719C41.141 5.27432 40.8022 5.37112 40.5456 5.49212H40.3859V3.72063C40.7731 3.58027 41.2039 3.48347 41.6831 3.41571C42.1623 3.3431 42.6463 3.30438 43.1254 3.30438C43.7256 3.30438 44.2726 3.35762 44.7759 3.46411C45.289 3.57059 45.7343 3.75451 46.107 4.02072C46.4797 4.28693 46.7701 4.66446 46.9733 5.15331C47.1863 5.63249 47.2928 6.25686 47.2928 7.02161V9.87728C47.3025 10.2064 47.317 10.5307 47.3412 10.8502C47.3606 11.1696 47.3944 11.4261 47.438 11.6149L47.3896 11.7407C47.0266 11.8811 46.6297 12.0021 46.2038 12.1086C45.7875 12.2054 45.3567 12.278 44.9211 12.3312C44.4807 12.3845 44.0644 12.4087 43.6724 12.4087V12.4232Z" fill="white"/>
<path d="M49.6262 10.023H49.7569C50.1441 10.1827 50.5894 10.3231 51.1025 10.4393C51.6252 10.5554 52.148 10.6135 52.6755 10.6135C52.8546 10.6135 53.0531 10.6087 53.2709 10.599C53.4838 10.5796 53.6823 10.5409 53.8662 10.4877C54.0598 10.4344 54.2147 10.3376 54.3309 10.2021C54.4615 10.0617 54.5245 9.87782 54.5245 9.64549C54.5245 9.34541 54.4035 9.14212 54.1566 9.02112C53.9098 8.90495 53.5322 8.80331 53.0192 8.71619L52.2641 8.59034C51.4074 8.4403 50.7492 8.18377 50.2893 7.8256C49.8295 7.45291 49.6021 6.90598 49.6021 6.17996C49.6021 5.65722 49.7424 5.18289 50.0183 4.7618C50.3087 4.33587 50.7492 4.0019 51.3493 3.75505C51.9592 3.49852 52.753 3.37268 53.7404 3.37268C54.2002 3.37268 54.6213 3.40656 55.0085 3.46948C55.4054 3.52272 55.7781 3.60501 56.1314 3.70665V5.54106H56.0007C55.5941 5.38134 55.2021 5.27001 54.8294 5.20709C54.4567 5.14417 54.0695 5.11029 53.6726 5.11029C53.0724 5.11029 52.6029 5.18289 52.2593 5.33293C51.9253 5.4733 51.7607 5.72015 51.7607 6.08316C51.7607 6.35904 51.8818 6.55749 52.1286 6.67365C52.3851 6.78981 52.753 6.89146 53.237 6.97858L53.9727 7.10442C54.4761 7.17703 54.931 7.31255 55.3376 7.50131C55.7539 7.69492 56.0878 7.96113 56.3298 8.29994C56.5767 8.62907 56.6977 9.055 56.6977 9.57773C56.6977 10.5022 56.3492 11.1992 55.6571 11.6687C54.9746 12.1285 53.934 12.356 52.5448 12.356C52.0318 12.356 51.5187 12.3124 51.0057 12.2301C50.4926 12.143 50.0328 12.0365 49.6262 11.9107V10.0279V10.023Z" fill="white"/>
<path d="M58.9239 12.227V2.79353C58.9239 2.58056 58.919 2.30952 58.9094 1.98039C58.8997 1.64158 58.8803 1.31245 58.861 0.993001C58.8513 0.673553 58.8174 0.417026 58.7642 0.22826L58.8126 0.102417H61.1697V4.56986L60.6905 3.83416C61.0197 3.68412 61.3778 3.56311 61.765 3.46631C62.1619 3.35983 62.6169 3.30658 63.13 3.30658C63.643 3.30658 64.1415 3.37435 64.5917 3.51471C65.0515 3.64055 65.4484 3.85836 65.7775 4.16813C66.1212 4.46822 66.3874 4.86511 66.581 5.36364C66.7746 5.85249 66.8714 6.46719 66.8714 7.19805V12.227H64.6256V7.30937C64.6256 6.74308 64.5384 6.30747 64.369 6.00254C64.1996 5.68309 63.9576 5.46528 63.6479 5.34912C63.3478 5.22328 62.9944 5.15552 62.5879 5.15552C62.3652 5.15552 62.1281 5.17488 61.8812 5.21844C61.644 5.262 61.4214 5.3104 61.2084 5.36364C61.0051 5.41688 60.8454 5.46528 60.7293 5.50885L61.1794 4.5021V12.227H58.9336H58.9239Z" fill="white"/>
<path d="M70.0526 12.2262V3.59138C70.0526 2.7734 70.1978 2.09578 70.4834 1.56336C70.7835 1.03095 71.2046 0.638898 71.7515 0.382371C72.2984 0.125843 72.9615 0 73.7408 0C74.0167 0 74.2635 0.0145204 74.4765 0.0484013C74.6991 0.0822823 74.8927 0.125843 75.0525 0.193605V1.91669H74.8927C74.7621 1.86345 74.6217 1.81989 74.462 1.79085C74.3119 1.74729 74.1183 1.72793 73.886 1.72793C73.3197 1.72793 72.9131 1.87797 72.6663 2.17322C72.4194 2.47331 72.2984 2.95732 72.2984 3.62526V12.2262H70.0526ZM68.6538 5.29995V3.51394H74.5249V5.29995H68.6538Z" fill="white"/>
<path d="M76.2002 12.2312V6.66022C76.2002 6.44725 76.1954 6.1762 76.1857 5.84707C76.176 5.50827 76.1567 5.17914 76.1373 4.85969C76.1276 4.53056 76.0938 4.26919 76.0405 4.07559L76.0889 3.94974C76.389 3.84326 76.7375 3.74646 77.1296 3.66417C77.5361 3.57705 77.9572 3.51413 78.3977 3.47057C78.8478 3.41733 79.2979 3.39313 79.7432 3.39313C79.9368 3.39313 80.145 3.39797 80.3676 3.40765C80.5902 3.41733 80.8177 3.44153 81.0404 3.47057V5.29046H80.8952C80.7355 5.2469 80.5515 5.2227 80.3482 5.21302C80.145 5.19366 79.9465 5.17914 79.7529 5.17914C79.4093 5.17914 79.0753 5.20334 78.7413 5.25658C78.4122 5.30982 78.1266 5.37274 77.8895 5.45018L78.2283 4.93713C78.3686 5.2227 78.4364 5.72123 78.4364 6.42305V12.2312H76.1906H76.2002Z" fill="white"/>
<path d="M87.4711 12.3865C86.6677 12.3865 85.9513 12.2945 85.3221 12.1154C84.6929 11.9363 84.1556 11.6653 83.72 11.3023C83.2796 10.9296 82.9456 10.4553 82.7084 9.88412C82.4858 9.30814 82.3696 8.63053 82.3696 7.84158C82.3696 6.90744 82.5439 6.10398 82.8972 5.4312C83.2505 4.74874 83.7491 4.23084 84.388 3.86783C85.0414 3.49514 85.8013 3.31122 86.6677 3.31122C87.6405 3.31122 88.4343 3.5145 89.0393 3.91623C89.6492 4.30829 90.0896 4.8649 90.3558 5.5764C90.6221 6.27822 90.7334 7.08652 90.6947 8.00131L90.6801 8.52888H83.8168V7.06232H88.5021V6.96552C88.5021 6.31694 88.3472 5.82325 88.0374 5.4796C87.7373 5.14079 87.2775 4.96654 86.658 4.96654C86.2708 4.96654 85.9271 5.05367 85.6174 5.22307C85.3173 5.3828 85.0753 5.65868 84.8962 6.05073C84.7268 6.44278 84.6397 6.98004 84.6397 7.6625V7.99647C84.6397 8.66441 84.7703 9.19198 85.0269 9.57435C85.2834 9.94704 85.6367 10.2132 86.0869 10.373C86.537 10.5327 87.0549 10.6101 87.6405 10.6101C88.1633 10.6101 88.6231 10.5617 89.02 10.4649C89.4169 10.3681 89.7266 10.2568 89.9493 10.131H90.109V11.9363C89.8089 12.0622 89.4411 12.1687 89.0006 12.2558C88.5747 12.3429 88.0665 12.3816 87.476 12.3816L87.4711 12.3865Z" fill="white"/>
<path d="M97.6845 12.3865C96.8811 12.3865 96.1647 12.2945 95.5355 12.1154C94.9063 11.9363 94.369 11.6653 93.9334 11.3023C93.493 10.9296 93.159 10.4553 92.9218 9.88412C92.6992 9.30814 92.583 8.63053 92.583 7.84158C92.583 6.90744 92.7573 6.10398 93.1106 5.4312C93.4639 4.74874 93.9624 4.23084 94.6013 3.86783C95.2548 3.49514 96.0147 3.31122 96.881 3.31122C97.8539 3.31122 98.6477 3.5145 99.2527 3.91623C99.8626 4.30829 100.303 4.8649 100.569 5.5764C100.835 6.27822 100.947 7.08652 100.908 8.00131L100.894 8.52888H94.0302V7.06232H98.7155V6.96552C98.7155 6.31694 98.5606 5.82325 98.2508 5.4796C97.9507 5.14079 97.4909 4.96654 96.8714 4.96654C96.4842 4.96654 96.1405 5.05367 95.8307 5.22307C95.5307 5.3828 95.2886 5.65868 95.1096 6.05073C94.9402 6.44278 94.853 6.98004 94.853 7.6625V7.99647C94.853 8.66441 94.9837 9.19198 95.2402 9.57435C95.4968 9.94704 95.8501 10.2132 96.3002 10.373C96.7504 10.5327 97.2683 10.6101 97.8539 10.6101C98.3766 10.6101 98.8365 10.5617 99.2334 10.4649C99.6302 10.3681 99.94 10.2568 100.163 10.131H100.322V11.9363C100.022 12.0622 99.6544 12.1687 99.214 12.2558C98.7881 12.3429 98.2798 12.3816 97.6893 12.3816L97.6845 12.3865Z" fill="white"/>
<path d="M9.88381 0.157043C7.56055 0.157043 5.67773 2.03017 5.67773 4.34376H21.2872C23.6104 4.34376 25.4932 2.47063 25.4932 0.157043H9.88381Z" fill="#04AB61"/>
<path d="M5.6709 4.34376C5.6709 2.03017 7.55855 0.157043 9.88181 0.157043V15.6939C9.88181 18.0075 7.999 19.8806 5.67574 19.8806V4.34376H5.6709Z" fill="#04AB61"/>
<path fill-rule="evenodd" clip-rule="evenodd" d="M11.2183 5.7417V9.92841H16.1262C18.4494 9.92841 20.3322 8.05528 20.3322 5.7417H11.2183Z" fill="#FBB016"/>
<path d="M0.000976562 9.92842C0.000976562 7.61483 1.88379 5.7417 4.20705 5.7417V21.2785C4.20705 23.5921 2.32424 25.4652 0.000976562 25.4652V9.92842Z" fill="#FBB016"/>
<path d="M51.152 30.4072H100.798L99.3346 43.5786H49.6885L53.0095 36.8803L51.152 30.4072Z" fill="url(#paint0_linear_804_167)"/>
<path d="M56.5062 39.9843L57.3562 35.1897H55.6727L55.8542 34.2076H60.4425L60.2692 35.1897H58.5858L57.744 39.9843H56.5062ZM62.4674 40.0833C61.9998 40.0833 61.6065 39.9925 61.2874 39.811C60.9738 39.6239 60.751 39.3543 60.6189 39.0022C60.4924 38.6501 60.4704 38.2265 60.5529 37.7314L61.1718 34.2076H62.4097L61.7825 37.7314C61.744 37.9844 61.7467 38.2018 61.7908 38.3833C61.8403 38.5649 61.9393 38.7024 62.0878 38.7959C62.2364 38.8894 62.4372 38.9362 62.6903 38.9362C62.9323 38.9362 63.1441 38.8922 63.3257 38.8042C63.5072 38.7106 63.6585 38.5759 63.7796 38.3998C63.9006 38.2183 63.9831 37.9954 64.0271 37.7314L64.6461 34.2076H65.8839L65.265 37.7314C65.1715 38.2595 64.9872 38.6996 64.7121 39.0517C64.437 39.3983 64.1042 39.6569 63.7135 39.8275C63.3284 39.998 62.9131 40.0833 62.4674 40.0833ZM65.9279 39.9843L66.943 34.2076H69.1629C69.592 34.2076 69.9413 34.2819 70.2109 34.4304C70.486 34.579 70.6868 34.777 70.8133 35.0246C70.9454 35.2667 71.0031 35.5307 70.9866 35.8168C70.9701 36.2019 70.8601 36.5403 70.6565 36.8319C70.453 37.1234 70.1724 37.3518 69.8148 37.5168C69.4572 37.6819 69.0391 37.7644 68.5604 37.7644H67.5619L67.1658 39.9843H65.9279ZM68.9483 39.9843L68.2303 37.459H69.526L70.3099 39.9843H68.9483ZM67.7187 36.8731H68.6512C68.9703 36.8731 69.2234 36.7879 69.4104 36.6173C69.5975 36.4468 69.6965 36.2184 69.7075 35.9324C69.7185 35.7233 69.6635 35.5555 69.5425 35.429C69.4214 35.3024 69.2206 35.2392 68.94 35.2392H68.0075L67.7187 36.8731ZM71.2226 39.9843L72.2377 34.2076H73.4838L75.3323 38.0367L76.009 34.2076H77.2468L76.2318 39.9843H74.994L73.1372 36.1552L72.4605 39.9843H71.2226ZM79.3859 40.0833C78.9623 40.0833 78.5937 40.0118 78.2801 39.8687C77.972 39.7257 77.7437 39.5194 77.5952 39.2498C77.4466 38.9747 77.4026 38.6364 77.4631 38.2348H78.7753C78.7533 38.3998 78.7698 38.5456 78.8248 38.6721C78.8853 38.7932 78.9788 38.8867 79.1054 38.9527C79.2319 39.0132 79.3777 39.0435 79.5427 39.0435C79.7133 39.0435 79.8618 39.016 79.9884 38.961C80.1149 38.9004 80.2139 38.8179 80.2854 38.7134C80.3625 38.6034 80.4037 38.4768 80.4092 38.3338C80.4147 38.2348 80.3955 38.1467 80.3515 38.0697C80.313 37.9872 80.2524 37.9157 80.1699 37.8552C80.0874 37.7891 79.9911 37.7314 79.8811 37.6819C79.7765 37.6323 79.661 37.5856 79.5345 37.5416C79.4079 37.4921 79.2787 37.4453 79.1466 37.4013C78.756 37.2637 78.4589 37.0767 78.2554 36.8401C78.0518 36.6035 77.9583 36.3092 77.9748 35.9571C77.9913 35.583 78.1013 35.2584 78.3049 34.9833C78.5084 34.7028 78.7808 34.4882 79.1219 34.3397C79.4685 34.1856 79.8563 34.1086 80.2854 34.1086C80.6761 34.1086 81.0089 34.1746 81.284 34.3067C81.5646 34.4332 81.7736 34.623 81.9112 34.8761C82.0487 35.1291 82.0955 35.44 82.0514 35.8086H80.7228C80.7448 35.671 80.7283 35.5528 80.6733 35.4537C80.6238 35.3547 80.5468 35.2804 80.4422 35.2309C80.3377 35.1759 80.2139 35.1484 80.0709 35.1484C79.9278 35.1484 79.7986 35.1731 79.683 35.2227C79.573 35.2722 79.485 35.3437 79.4189 35.4372C79.3529 35.5307 79.3172 35.6408 79.3117 35.7673C79.3062 35.8608 79.3199 35.9434 79.3529 36.0149C79.3914 36.0809 79.4437 36.1414 79.5097 36.1964C79.5757 36.2459 79.6555 36.2955 79.749 36.345C79.8426 36.389 79.9443 36.433 80.0544 36.477C80.1699 36.5155 80.2882 36.5568 80.4092 36.6008C80.6018 36.6668 80.7806 36.7466 80.9456 36.8401C81.1107 36.9336 81.2565 37.0437 81.383 37.1702C81.5095 37.2912 81.6058 37.437 81.6718 37.6076C81.7379 37.7781 81.7654 37.9734 81.7544 38.1935C81.7434 38.5676 81.6333 38.8977 81.4243 39.1838C81.2207 39.4644 80.9429 39.6844 80.5908 39.844C80.2387 40.0035 79.8371 40.0833 79.3859 40.0833ZM87.1159 39.9843L87.8751 35.6353L86.7941 35.9406L86.9756 34.9091L88.6756 34.2076H89.4183L88.395 39.9843H87.1159ZM91.8932 40.0833C91.4201 40.0833 91.0212 39.9815 90.6967 39.7779C90.3776 39.5744 90.1383 39.2911 89.9787 38.928C89.8247 38.5594 89.7614 38.1302 89.7889 37.6406C89.8109 37.1344 89.9017 36.6696 90.0612 36.2459C90.2263 35.8168 90.4491 35.4427 90.7297 35.1236C91.0102 34.8045 91.3348 34.557 91.7034 34.3809C92.072 34.1994 92.4709 34.1086 92.9 34.1086C93.3787 34.1086 93.7775 34.2104 94.0966 34.4139C94.4157 34.6175 94.6523 34.9036 94.8063 35.2722C94.9659 35.6353 95.0319 36.0616 95.0044 36.5513C94.9879 37.0519 94.8971 37.5168 94.732 37.9459C94.5725 38.375 94.3524 38.7492 94.0719 39.0682C93.7913 39.3873 93.4639 39.6377 93.0898 39.8192C92.7212 39.9953 92.3224 40.0833 91.8932 40.0833ZM92.0748 38.9692C92.2949 38.9692 92.5012 38.9115 92.6937 38.7959C92.8918 38.6749 93.0651 38.5098 93.2136 38.3008C93.3677 38.0917 93.4887 37.8497 93.5767 37.5746C93.6702 37.2995 93.7225 37.0024 93.7335 36.6833C93.75 36.3752 93.7198 36.1139 93.6427 35.8994C93.5712 35.6848 93.4557 35.5197 93.2961 35.4042C93.1421 35.2887 92.9523 35.2309 92.7267 35.2309C92.5067 35.2309 92.2976 35.2887 92.0996 35.4042C91.907 35.5197 91.7337 35.682 91.5797 35.8911C91.4256 36.0947 91.3046 36.3367 91.2166 36.6173C91.1285 36.8924 91.0763 37.1895 91.0598 37.5086C91.0433 37.8111 91.0735 38.0725 91.1505 38.2925C91.2276 38.5071 91.3431 38.6749 91.4971 38.7959C91.6567 38.9115 91.8492 38.9692 92.0748 38.9692Z" fill="white"/>
<defs>
<linearGradient id="paint0_linear_804_167" x1="72.7103" y1="37.0492" x2="99.3346" y2="28.8874" gradientUnits="userSpaceOnUse">
<stop stop-color="#6C38D4"/>
<stop offset="1" stop-color="#04AB61"/>
</linearGradient>
</defs>
</svg>
